<!-- Generated by IcoMoon.io -->
<svg version="1.1" xmlns="http://www.w3.org/2000/svg" width="32" height="32" viewBox="0 0 32 32">
<path d="M24.369 0.236c-1.527-0.162-3.061-0.241-4.596-0.236-5.090 0-8.253 3.242-8.253 8.461v3.543h-4.276c-0.201 0-0.393 0.080-0.535 0.222s-0.222 0.334-0.222 0.535v5.827c0 0.201 0.080 0.393 0.222 0.535s0.334 0.222 0.535 0.222h4.276v11.684c0 0.201 0.080 0.393 0.222 0.535s0.334 0.222 0.535 0.222h6.021c0.201 0 0.393-0.080 0.535-0.222s0.222-0.334 0.222-0.535v-11.684h4.262c0.184 0 0.361-0.067 0.499-0.188s0.227-0.288 0.251-0.471l0.752-5.827c0.014-0.107 0.005-0.215-0.026-0.318s-0.084-0.198-0.155-0.279-0.159-0.146-0.257-0.19c-0.098-0.044-0.205-0.067-0.312-0.067h-5.014v-2.965c0-1.468 0.295-2.081 2.131-2.081h3.086c0.201 0 0.393-0.080 0.535-0.222s0.222-0.334 0.222-0.535v-5.214c0-0.184-0.067-0.361-0.188-0.499s-0.288-0.227-0.471-0.251zM23.514 5.443l-2.331 0.002c-3.265 0-3.643 2.052-3.643 3.595v3.723c0 0.2 0.080 0.393 0.221 0.535s0.334 0.222 0.534 0.222h4.913l-0.559 4.313h-4.353c-0.201 0-0.393 0.080-0.535 0.222s-0.222 0.334-0.222 0.535v11.681h-4.507v-11.681c0-0.201-0.080-0.393-0.222-0.535s-0.334-0.222-0.535-0.222h-4.274v-4.314h4.274c0.201 0 0.393-0.080 0.535-0.222s0.222-0.334 0.222-0.535v-4.301c0-4.35 2.52-6.947 6.74-6.947 1.527 0 2.906 0.083 3.741 0.156v3.773z"></path>
</svg>
