<!-- Generated by IcoMoon.io -->
<svg version="1.1" xmlns="http://www.w3.org/2000/svg" width="32" height="32" viewBox="0 0 32 32">
<path d="M15.591 8.273c-1.447 0-2.862 0.429-4.066 1.233s-2.141 1.947-2.695 3.284c-0.554 1.337-0.699 2.809-0.416 4.228s0.979 2.724 2.003 3.747c1.023 1.023 2.327 1.72 3.747 2.003s2.891 0.137 4.228-0.416 2.48-1.492 3.284-2.695c0.804-1.203 1.233-2.618 1.233-4.066 0-1.941-0.771-3.802-2.143-5.175s-3.234-2.143-5.175-2.143zM15.591 21c-1.070 0-2.116-0.317-3.005-0.912s-1.583-1.439-1.992-2.428c-0.409-0.988-0.517-2.076-0.308-3.125s0.724-2.013 1.48-2.77 1.72-1.272 2.77-1.48c1.049-0.209 2.137-0.102 3.125 0.308s1.833 1.103 2.428 1.992c0.594 0.889 0.912 1.935 0.912 3.005-0.004 1.433-0.575 2.807-1.589 3.82s-2.387 1.585-3.82 1.589zM22.591 0h-14c-2.278 0-4.464 0.905-6.075 2.516s-2.516 3.796-2.516 6.075v14c0 2.278 0.905 4.463 2.516 6.075s3.796 2.516 6.075 2.516h14c2.278 0 4.463-0.905 6.075-2.516s2.516-3.796 2.516-6.075v-14c0-2.278-0.905-4.464-2.516-6.075s-3.796-2.516-6.075-2.516zM29.273 22.591c0 1.772-0.704 3.472-1.957 4.725s-2.953 1.957-4.725 1.957h-14c-1.772 0-3.472-0.704-4.725-1.957s-1.957-2.953-1.957-4.725v-14c0-1.772 0.704-3.472 1.957-4.725s2.953-1.957 4.725-1.957h14c1.772 0 3.472 0.704 4.725 1.957s1.957 2.953 1.957 4.725v14zM25.455 7.318c0 0.315-0.093 0.622-0.268 0.884s-0.423 0.466-0.714 0.586c-0.291 0.12-0.611 0.152-0.919 0.091s-0.592-0.213-0.815-0.435c-0.223-0.223-0.374-0.506-0.435-0.815s-0.030-0.628 0.090-0.919c0.12-0.291 0.324-0.539 0.586-0.714s0.569-0.268 0.884-0.268c0.422 0 0.827 0.168 1.125 0.466s0.466 0.703 0.466 1.125z"></path>
</svg>
