<!-- Generated by IcoMoon.io -->
<svg version="1.1" xmlns="http://www.w3.org/2000/svg" width="32" height="32" viewBox="0 0 32 32">
<path d="M27.831 22.83l-0.179-0.223c-1.416-1.791-2.6-2.722-3.616-2.845-0.878-0.12-1.727 0.487-2.63 1.112l-0.965 0.603c-0.116 0.058-0.23 0.105-0.337 0.136-0.564 0.16-1.989 0.253-2.795-0.484-0.939-0.859-2.395-2.431-3.528-3.804-1.082-1.422-2.271-3.195-2.892-4.311-0.524-0.946-0.085-2.268 0.208-2.758 0.058-0.096 0.133-0.191 0.217-0.285l0.851-0.786c0.012-0.012 0.018-0.028 0.029-0.039 0.008-0.008 0.022-0.005 0.032-0.012 0.768-0.648 1.562-1.316 1.671-2.173 0.128-1.007-0.498-2.37-1.917-4.159l-0.173-0.223c-0.878-1.126-2.206-2.828-4.114-2.548-0.75 0.111-1.42 0.367-2.111 0.801-0.007 0.004-0.011 0.012-0.017 0.017s-0.012 0.004-0.018 0.008l-0.962 0.713c-0.010 0.006-0.015 0.018-0.025 0.026-0.007 0.007-0.018 0.008-0.026 0.015-0.111 0.094-0.223 0.19-0.333 0.289-0.976 0.87-3.088 3.395-1.647 8.067 0.93 3.017 2.849 6.538 5.562 10.201l-0.026 0.022 1.496 1.864 0.012-0.010c2.941 3.479 5.935 6.169 8.678 7.797 1.831 1.087 3.43 1.447 4.746 1.447 1.731 0 2.971-0.622 3.594-1.027l0.391-0.262c0.044-0.030 0.076-0.073 0.107-0.111l0.852-0.641c0.010-0.008 0.015-0.019 0.025-0.028 0.004-0.004 0.011-0.003 0.017-0.007 0.606-0.553 1.025-1.133 1.317-1.82 0.756-1.76-0.597-3.446-1.492-4.563zM28.311 26.96c-0.227 0.534-0.559 0.988-1.038 1.429l-1.268 0.954c-1.148 0.746-3.602 1.668-7.167-0.449-2.743-1.628-5.763-4.381-8.734-7.961l-0.804-1.016c-2.798-3.711-4.766-7.264-5.695-10.276-1.207-3.916 0.314-6.016 1.332-6.923 0.103-0.094 0.206-0.18 0.308-0.267l0.004-0.004 0.924-0.684c0.562-0.355 1.082-0.553 1.681-0.644 1.279-0.193 2.319 1.156 3.083 2.136l0.179 0.227c1.586 2 1.738 2.951 1.689 3.339-0.055 0.431-0.71 0.983-1.288 1.469l-0.081 0.069c-0.003 0.003-0.004 0.007-0.007 0.010-0.004 0.003-0.008 0.004-0.012 0.007l-0.879 0.813c-0.005 0.005-0.008 0.012-0.014 0.019s-0.017 0.010-0.022 0.017c-0.136 0.153-0.253 0.306-0.348 0.464-0.494 0.827-0.961 2.537-0.224 3.859 0.643 1.156 1.866 2.982 2.991 4.458 1.175 1.426 2.674 3.044 3.646 3.932 0.728 0.665 1.741 0.888 2.618 0.888 0.469 0 0.9-0.065 1.226-0.157 0.172-0.050 0.35-0.121 0.533-0.211 0.011-0.005 0.017-0.015 0.028-0.022 0.005-0.003 0.014-0.001 0.019-0.006l1.021-0.639c0.033-0.022 0.055-0.051 0.083-0.078l0.012 0.014c0.629-0.436 1.346-0.948 1.795-0.874 0.398 0.048 1.301 0.431 2.889 2.436l0.183 0.23c0.773 0.965 1.833 2.286 1.339 3.441z"></path>
</svg>
