<svg xmlns="http://www.w3.org/2000/svg" aria-hidden="true" overflow="hidden" style="position:absolute;width:0;height:0">
  <defs>
    <symbol id="icon-arrowonly_left" viewBox="0 0 32 32">
      <path d="M.521 17.015a1.778 1.778 0 0 1 0-2.514L11.835 3.187a1.778 1.778 0 0 1 2.514 2.514L4.292 15.758l10.057 10.057a1.778 1.778 0 0 1-2.514 2.514L.521 17.015zm31.056.521H1.778V13.98h29.799v3.556z"/>
    </symbol>
    <symbol id="icon-arrow_left" viewBox="0 0 32 32">
      <path stroke-width=".559" d="M.279 16c0 8.682 7.038 15.721 15.721 15.721S31.721 24.683 31.721 16C31.721 7.318 24.683.279 16 .279S.279 7.317.279 16z"/>
      <path d="M9.841 16.514a.727.727 0 0 1 0-1.028l4.628-4.628a.728.728 0 0 1 1.029 1.028L11.384 16l4.114 4.114a.728.728 0 0 1-1.029 1.029l-4.628-4.628zm12.704.213h-12.19v-1.455h12.19v1.455z"/>
    </symbol>
    <symbol id="icon-bottom_call_icon" viewBox="0 0 32 32">
      <path d="m27.654 22.957-.173-.216c-1.372-1.735-2.519-2.637-3.503-2.756-.851-.116-1.673.472-2.548 1.077l-.935.584a2.054 2.054 0 0 1-.327.132c-.547.155-1.927.245-2.708-.469-.909-.832-2.32-2.355-3.417-3.685-1.048-1.377-2.2-3.095-2.801-4.176-.508-.916-.083-2.197.201-2.672.056-.093.129-.185.211-.276l.824-.761c.012-.012.017-.027.028-.037.008-.008.021-.005.031-.012.744-.628 1.513-1.275 1.619-2.105.124-.976-.483-2.296-1.857-4.029l-.168-.216C11.28 2.249 9.994.6 8.146.872c-.727.108-1.376.356-2.045.776-.007.004-.011.012-.016.016s-.012.004-.017.008l-.932.691c-.009.005-.015.017-.024.025-.007.007-.017.008-.025.015a13.74 13.74 0 0 0-.323.28c-.945.843-2.992 3.289-1.596 7.815.901 2.923 2.76 6.333 5.388 9.883l-.025.021 1.449 1.805.012-.009c2.849 3.371 5.749 5.976 8.407 7.553 1.773 1.053 3.323 1.401 4.597 1.401 1.677 0 2.879-.603 3.481-.995l.379-.253c.043-.029.073-.071.104-.108l.825-.621c.009-.008.015-.019.024-.027.004-.004.011-.003.016-.007.587-.536.993-1.097 1.276-1.763.732-1.705-.579-3.339-1.445-4.42zm.466 4.002c-.22.517-.541.957-1.005 1.384l-1.228.924c-1.112.723-3.489 1.616-6.943-.435-2.657-1.577-5.583-4.244-8.461-7.712l-.779-.984c-2.711-3.595-4.617-7.037-5.517-9.955-1.169-3.793.304-5.828 1.291-6.707.1-.091.2-.175.299-.259l.004-.004.895-.663a4.067 4.067 0 0 1 1.628-.624c1.239-.187 2.247 1.12 2.987 2.069l.173.22C13 6.15 13.148 7.072 13.1 7.448c-.053.417-.688.952-1.248 1.423l-.079.067c-.003.003-.004.007-.007.009l-.012.007-.852.788c-.005.005-.008.012-.013.019s-.016.009-.021.016a3.007 3.007 0 0 0-.337.449c-.479.801-.931 2.457-.217 3.739.623 1.12 1.808 2.889 2.897 4.319 1.139 1.381 2.591 2.949 3.532 3.809.705.644 1.687.86 2.536.86.455 0 .872-.063 1.188-.152.167-.048.339-.117.516-.204.011-.005.016-.015.027-.021.005-.003.013-.001.019-.005l.989-.619c.032-.021.053-.049.08-.076l.012.013c.609-.423 1.304-.919 1.739-.847.385.047 1.26.417 2.799 2.36l.177.223c.749.935 1.776 2.215 1.297 3.333z"/>
    </symbol>
    <symbol id="icon-bottom_fb_icon" viewBox="0 0 32 32">
      <path d="M24.369.236A42.256 42.256 0 0 0 19.773 0c-5.09 0-8.253 3.242-8.253 8.461v3.543H7.244a.756.756 0 0 0-.757.757v5.827a.756.756 0 0 0 .757.757h4.276v11.684a.756.756 0 0 0 .757.757h6.021a.756.756 0 0 0 .757-.757V19.345h4.262a.756.756 0 0 0 .75-.659l.752-5.827a.76.76 0 0 0-.438-.787.764.764 0 0 0-.312-.067h-5.014V9.04c0-1.468.295-2.081 2.131-2.081h3.086a.756.756 0 0 0 .757-.757V.988a.756.756 0 0 0-.659-.75zm-.855 5.207-2.331.002c-3.265 0-3.643 2.052-3.643 3.595v3.723a.754.754 0 0 0 .755.757h4.913l-.559 4.313h-4.353a.756.756 0 0 0-.757.757v11.681h-4.507V18.59a.756.756 0 0 0-.757-.757H8.001v-4.314h4.274a.756.756 0 0 0 .757-.757V8.461c0-4.35 2.52-6.947 6.74-6.947 1.527 0 2.906.083 3.741.156v3.773z"/>
    </symbol>
    <symbol id="icon-bottom_instagram_icon" viewBox="0 0 32 32">
      <path d="M15.591 8.273A7.322 7.322 0 0 0 8.83 12.79a7.311 7.311 0 0 0 1.587 7.975 7.323 7.323 0 0 0 7.975 1.587 7.314 7.314 0 0 0 4.517-6.761 7.315 7.315 0 0 0-7.318-7.318zm0 12.727a5.402 5.402 0 0 1-4.997-3.34 5.41 5.41 0 1 1 10.407-2.07 5.421 5.421 0 0 1-5.409 5.409zm7-21h-14A8.592 8.592 0 0 0 0 8.591v14a8.594 8.594 0 0 0 8.591 8.591h14a8.594 8.594 0 0 0 8.591-8.591v-14A8.592 8.592 0 0 0 22.591 0zm6.682 22.591a6.683 6.683 0 0 1-6.682 6.682h-14a6.683 6.683 0 0 1-6.682-6.682v-14a6.683 6.683 0 0 1 6.682-6.682h14a6.683 6.683 0 0 1 6.682 6.682v14zM25.455 7.318a1.59 1.59 0 1 1-3.18 0 1.59 1.59 0 0 1 3.18.001z"/>
    </symbol>
    <symbol id="icon-top_call_icon" viewBox="0 0 32 32">
      <path d="m27.831 22.83-.179-.223c-1.416-1.791-2.6-2.722-3.616-2.845-.878-.12-1.727.487-2.63 1.112l-.965.603c-.116.058-.23.105-.337.136-.564.16-1.989.253-2.795-.484-.939-.859-2.395-2.431-3.528-3.804-1.082-1.422-2.271-3.195-2.892-4.311-.524-.946-.085-2.268.208-2.758.058-.096.133-.191.217-.285l.851-.786c.012-.012.018-.028.029-.039.008-.008.022-.005.032-.012.768-.648 1.562-1.316 1.671-2.173.128-1.007-.498-2.37-1.917-4.159l-.173-.223C10.929 1.453 9.601-.249 7.693.031c-.75.111-1.42.367-2.111.801-.007.004-.011.012-.017.017s-.012.004-.018.008l-.962.713c-.01.006-.015.018-.025.026-.007.007-.018.008-.026.015-.111.094-.223.19-.333.289-.976.87-3.088 3.395-1.647 8.067.93 3.017 2.849 6.538 5.562 10.201l-.026.022 1.496 1.864.012-.01c2.941 3.479 5.935 6.169 8.678 7.797 1.831 1.087 3.43 1.447 4.746 1.447 1.731 0 2.971-.622 3.594-1.027l.391-.262c.044-.03.076-.073.107-.111l.852-.641c.01-.008.015-.019.025-.028.004-.004.011-.003.017-.007.606-.553 1.025-1.133 1.317-1.82.756-1.76-.597-3.446-1.492-4.563zm.48 4.13c-.227.534-.559.988-1.038 1.429l-1.268.954c-1.148.746-3.602 1.668-7.167-.449-2.743-1.628-5.763-4.381-8.734-7.961L9.3 19.917c-2.798-3.711-4.766-7.264-5.695-10.276-1.207-3.916.314-6.016 1.332-6.923.103-.094.206-.18.308-.267l.004-.004.924-.684a4.204 4.204 0 0 1 1.681-.644c1.279-.193 2.319 1.156 3.083 2.136l.179.227c1.586 2 1.738 2.951 1.689 3.339-.055.431-.71.983-1.288 1.469l-.081.069-.007.01-.012.007-.879.813c-.005.005-.008.012-.014.019s-.017.01-.022.017a3.137 3.137 0 0 0-.348.464c-.494.827-.961 2.537-.224 3.859.643 1.156 1.866 2.982 2.991 4.458 1.175 1.426 2.674 3.044 3.646 3.932.728.665 1.741.888 2.618.888.469 0 .9-.065 1.226-.157.172-.05.35-.121.533-.211.011-.005.017-.015.028-.022.005-.003.014-.001.019-.006l1.021-.639c.033-.022.055-.051.083-.078l.012.014c.629-.436 1.346-.948 1.795-.874.398.048 1.301.431 2.889 2.436l.183.23c.773.965 1.833 2.286 1.339 3.441z"/>
    </symbol>
    <symbol id="icon-top_fb_icon" viewBox="0 0 32 32">
      <path d="M24.29.238A42.834 42.834 0 0 0 19.662 0c-5.125 0-8.309 3.264-8.309 8.518v3.567H7.048a.762.762 0 0 0-.762.762v5.867a.762.762 0 0 0 .762.762h4.305V31.24a.762.762 0 0 0 .762.762h6.062a.762.762 0 0 0 .762-.762V19.476h4.291a.763.763 0 0 0 .756-.663l.757-5.867a.774.774 0 0 0-.182-.602.758.758 0 0 0-.572-.26h-5.048V9.099c0-1.478.297-2.095 2.146-2.095h3.107a.762.762 0 0 0 .762-.762V.992a.763.763 0 0 0-.663-.756zm-.861 5.242-2.347.002c-3.287 0-3.668 2.066-3.668 3.619v3.749a.76.76 0 0 0 .761.762h4.946l-.562 4.343h-4.383a.762.762 0 0 0-.762.762v11.761h-4.538V18.717a.762.762 0 0 0-.762-.762H7.811v-4.343h4.303a.762.762 0 0 0 .762-.762V8.519c0-4.379 2.537-6.994 6.786-6.994 1.538 0 2.926.084 3.767.157v3.799z"/>
    </symbol>
    <symbol id="icon-top_instagram_icon" viewBox="0 0 32 32">
      <path d="M16 10.25a5.746 5.746 0 0 0-5.312 3.55 5.75 5.75 0 1 0 5.313-3.549zm0 10a4.248 4.248 0 0 1-3.005-7.255 4.253 4.253 0 0 1 6.539.644A4.25 4.25 0 0 1 20.25 16 4.265 4.265 0 0 1 16 20.25zm5.5-16.5h-11a6.75 6.75 0 0 0-6.75 6.75v11a6.75 6.75 0 0 0 6.75 6.75h11a6.75 6.75 0 0 0 6.75-6.75v-11a6.75 6.75 0 0 0-6.75-6.75zm5.25 17.75a5.247 5.247 0 0 1-5.25 5.25h-11a5.247 5.247 0 0 1-5.25-5.25v-11a5.247 5.247 0 0 1 5.25-5.25h11a5.247 5.247 0 0 1 5.25 5.25v11zm-3-12a1.243 1.243 0 0 1-.772 1.154 1.249 1.249 0 0 1-1.173-2.194 1.254 1.254 0 0 1 1.579.155c.235.234.366.552.366.884z"/>
    </symbol>
  </defs>
</svg>
